G04*
G04 #@! TF.GenerationSoftware,Altium Limited,Altium Designer,21.2.2 (38)*
G04*
G04 Layer_Color=16711935*
%FSLAX43Y43*%
%MOMM*%
G71*
G04*
G04 #@! TF.SameCoordinates,F6177738-A101-420F-8975-3F4184574452*
G04*
G04*
G04 #@! TF.FilePolarity,Positive*
G04*
G01*
G75*
%ADD10C,0.200*%
G36*
X115305Y78044D02*
X115304D01*
X115300D01*
X115295D01*
X115287Y78045D01*
X115279Y78046D01*
X115270Y78048D01*
X115261Y78050D01*
X115250Y78054D01*
X115249D01*
X115249Y78055D01*
X115243Y78056D01*
X115235Y78060D01*
X115224Y78066D01*
X115211Y78073D01*
X115196Y78082D01*
X115181Y78093D01*
X115165Y78105D01*
X115164D01*
X115163Y78107D01*
X115158Y78112D01*
X115150Y78120D01*
X115138Y78132D01*
X115124Y78146D01*
X115107Y78164D01*
X115089Y78185D01*
X115069Y78208D01*
X115068Y78209D01*
X115065Y78213D01*
X115061Y78218D01*
X115055Y78225D01*
X115048Y78233D01*
X115040Y78243D01*
X115030Y78253D01*
X115020Y78265D01*
X114998Y78289D01*
X114976Y78312D01*
X114965Y78323D01*
X114954Y78333D01*
X114943Y78342D01*
X114933Y78350D01*
X114932D01*
X114931Y78351D01*
X114929Y78353D01*
X114925Y78355D01*
X114915Y78362D01*
X114903Y78369D01*
X114888Y78375D01*
X114872Y78382D01*
X114855Y78386D01*
X114838Y78387D01*
X114837D01*
X114836D01*
X114831Y78387D01*
X114821Y78386D01*
X114811Y78383D01*
X114798Y78379D01*
X114785Y78373D01*
X114772Y78364D01*
X114759Y78353D01*
X114758Y78351D01*
X114754Y78347D01*
X114749Y78340D01*
X114743Y78330D01*
X114737Y78317D01*
X114732Y78302D01*
X114728Y78285D01*
X114727Y78265D01*
Y78260D01*
X114728Y78256D01*
X114729Y78245D01*
X114732Y78232D01*
X114735Y78218D01*
X114742Y78203D01*
X114750Y78188D01*
X114761Y78174D01*
X114763Y78172D01*
X114768Y78168D01*
X114775Y78163D01*
X114786Y78157D01*
X114799Y78151D01*
X114816Y78145D01*
X114834Y78142D01*
X114856Y78140D01*
X114847Y78059D01*
X114846D01*
X114844Y78060D01*
X114839D01*
X114832Y78061D01*
X114825Y78063D01*
X114817Y78065D01*
X114807Y78068D01*
X114796Y78070D01*
X114774Y78078D01*
X114752Y78089D01*
X114741Y78095D01*
X114730Y78104D01*
X114720Y78112D01*
X114710Y78121D01*
X114710Y78122D01*
X114709Y78124D01*
X114706Y78127D01*
X114703Y78131D01*
X114699Y78137D01*
X114696Y78143D01*
X114691Y78151D01*
X114686Y78160D01*
X114682Y78170D01*
X114677Y78181D01*
X114673Y78193D01*
X114670Y78206D01*
X114667Y78220D01*
X114664Y78235D01*
X114663Y78251D01*
X114662Y78267D01*
Y78277D01*
X114663Y78283D01*
X114664Y78290D01*
X114665Y78300D01*
X114667Y78310D01*
X114669Y78320D01*
X114675Y78344D01*
X114685Y78368D01*
X114690Y78380D01*
X114697Y78392D01*
X114705Y78403D01*
X114714Y78413D01*
X114715Y78414D01*
X114716Y78416D01*
X114720Y78418D01*
X114723Y78422D01*
X114728Y78426D01*
X114734Y78431D01*
X114741Y78436D01*
X114749Y78441D01*
X114767Y78450D01*
X114789Y78460D01*
X114800Y78463D01*
X114813Y78465D01*
X114826Y78467D01*
X114840Y78468D01*
X114842D01*
X114846D01*
X114854Y78467D01*
X114864Y78466D01*
X114875Y78464D01*
X114888Y78461D01*
X114902Y78457D01*
X114916Y78451D01*
X114918Y78450D01*
X114922Y78449D01*
X114930Y78445D01*
X114940Y78439D01*
X114951Y78432D01*
X114965Y78423D01*
X114979Y78412D01*
X114994Y78399D01*
X114996Y78397D01*
X115002Y78392D01*
X115006Y78387D01*
X115011Y78383D01*
X115016Y78377D01*
X115024Y78370D01*
X115031Y78363D01*
X115040Y78353D01*
X115049Y78344D01*
X115059Y78333D01*
X115069Y78321D01*
X115081Y78308D01*
X115093Y78293D01*
X115106Y78278D01*
X115107Y78277D01*
X115109Y78276D01*
X115112Y78272D01*
X115115Y78267D01*
X115121Y78262D01*
X115126Y78255D01*
X115138Y78240D01*
X115152Y78225D01*
X115166Y78210D01*
X115178Y78197D01*
X115183Y78191D01*
X115187Y78187D01*
X115188Y78186D01*
X115191Y78183D01*
X115195Y78179D01*
X115200Y78175D01*
X115207Y78170D01*
X115213Y78165D01*
X115229Y78154D01*
Y78469D01*
X115305D01*
Y78044D01*
D02*
G37*
G36*
X115122Y77948D02*
X115129D01*
X115147Y77946D01*
X115167Y77945D01*
X115188Y77941D01*
X115208Y77935D01*
X115226Y77929D01*
X115227D01*
X115228Y77928D01*
X115234Y77925D01*
X115241Y77921D01*
X115251Y77914D01*
X115261Y77905D01*
X115273Y77895D01*
X115284Y77882D01*
X115293Y77867D01*
X115294Y77865D01*
X115297Y77860D01*
X115300Y77851D01*
X115304Y77839D01*
X115309Y77824D01*
X115312Y77808D01*
X115315Y77789D01*
X115316Y77769D01*
Y77761D01*
X115315Y77755D01*
X115314Y77748D01*
X115313Y77740D01*
X115310Y77721D01*
X115304Y77701D01*
X115296Y77679D01*
X115290Y77668D01*
X115284Y77658D01*
X115276Y77649D01*
X115268Y77640D01*
X115267Y77639D01*
X115266Y77638D01*
X115262Y77636D01*
X115259Y77633D01*
X115254Y77629D01*
X115248Y77626D01*
X115240Y77622D01*
X115232Y77617D01*
X115223Y77614D01*
X115212Y77610D01*
X115200Y77606D01*
X115187Y77603D01*
X115174Y77601D01*
X115158Y77598D01*
X115142Y77597D01*
X115125D01*
X115114Y77674D01*
X115114D01*
X115116D01*
X115120D01*
X115126Y77675D01*
X115131Y77676D01*
X115138D01*
X115153Y77678D01*
X115170Y77681D01*
X115187Y77687D01*
X115201Y77692D01*
X115208Y77696D01*
X115213Y77701D01*
X115214Y77701D01*
X115217Y77705D01*
X115222Y77711D01*
X115226Y77718D01*
X115232Y77728D01*
X115236Y77739D01*
X115239Y77753D01*
X115240Y77768D01*
Y77774D01*
X115239Y77779D01*
X115238Y77787D01*
X115237Y77796D01*
X115235Y77805D01*
X115231Y77814D01*
X115226Y77824D01*
X115225Y77824D01*
X115224Y77827D01*
X115220Y77831D01*
X115216Y77836D01*
X115210Y77841D01*
X115203Y77847D01*
X115196Y77851D01*
X115187Y77855D01*
X115186D01*
X115182Y77857D01*
X115175Y77858D01*
X115167Y77860D01*
X115156Y77861D01*
X115142Y77862D01*
X115126Y77864D01*
X115106D01*
X114665D01*
Y77949D01*
X115102D01*
X115102D01*
X115105D01*
X115109D01*
X115114D01*
X115122Y77948D01*
D02*
G37*
G36*
X110987Y78273D02*
X110487D01*
X110488Y78272D01*
X110491Y78267D01*
X110497Y78262D01*
X110503Y78253D01*
X110512Y78242D01*
X110521Y78229D01*
X110531Y78215D01*
X110541Y78198D01*
Y78197D01*
X110542Y78196D01*
X110546Y78191D01*
X110551Y78181D01*
X110556Y78170D01*
X110563Y78157D01*
X110569Y78143D01*
X110575Y78130D01*
X110581Y78116D01*
X110505D01*
Y78117D01*
X110503Y78118D01*
X110502Y78122D01*
X110500Y78127D01*
X110497Y78132D01*
X110493Y78139D01*
X110484Y78155D01*
X110474Y78173D01*
X110461Y78191D01*
X110446Y78211D01*
X110430Y78230D01*
X110429Y78231D01*
X110428Y78232D01*
X110426Y78235D01*
X110423Y78239D01*
X110414Y78247D01*
X110403Y78258D01*
X110390Y78269D01*
X110375Y78281D01*
X110360Y78291D01*
X110344Y78301D01*
Y78351D01*
X110987D01*
Y78273D01*
D02*
G37*
G36*
X110804Y77948D02*
X110811D01*
X110829Y77946D01*
X110849Y77945D01*
X110870Y77941D01*
X110890Y77935D01*
X110908Y77929D01*
X110909D01*
X110910Y77928D01*
X110916Y77925D01*
X110923Y77921D01*
X110933Y77914D01*
X110943Y77905D01*
X110955Y77895D01*
X110966Y77882D01*
X110975Y77867D01*
X110976Y77865D01*
X110979Y77860D01*
X110982Y77851D01*
X110986Y77839D01*
X110991Y77824D01*
X110994Y77808D01*
X110997Y77789D01*
X110998Y77769D01*
Y77761D01*
X110997Y77755D01*
X110996Y77748D01*
X110995Y77740D01*
X110992Y77721D01*
X110986Y77701D01*
X110978Y77679D01*
X110972Y77668D01*
X110966Y77658D01*
X110958Y77649D01*
X110950Y77640D01*
X110949Y77639D01*
X110948Y77638D01*
X110944Y77636D01*
X110941Y77633D01*
X110936Y77629D01*
X110930Y77626D01*
X110922Y77622D01*
X110914Y77617D01*
X110905Y77614D01*
X110894Y77610D01*
X110882Y77606D01*
X110869Y77603D01*
X110856Y77601D01*
X110840Y77598D01*
X110824Y77597D01*
X110807D01*
X110796Y77674D01*
X110796D01*
X110798D01*
X110802D01*
X110808Y77675D01*
X110813Y77676D01*
X110820D01*
X110835Y77678D01*
X110852Y77681D01*
X110869Y77687D01*
X110883Y77692D01*
X110890Y77696D01*
X110895Y77701D01*
X110896Y77701D01*
X110899Y77705D01*
X110904Y77711D01*
X110908Y77718D01*
X110914Y77728D01*
X110918Y77739D01*
X110921Y77753D01*
X110922Y77768D01*
Y77774D01*
X110921Y77779D01*
X110920Y77787D01*
X110919Y77796D01*
X110917Y77805D01*
X110913Y77814D01*
X110908Y77824D01*
X110907Y77824D01*
X110906Y77827D01*
X110902Y77831D01*
X110898Y77836D01*
X110892Y77841D01*
X110885Y77847D01*
X110878Y77851D01*
X110869Y77855D01*
X110868D01*
X110864Y77857D01*
X110857Y77858D01*
X110849Y77860D01*
X110838Y77861D01*
X110824Y77862D01*
X110808Y77864D01*
X110788D01*
X110347D01*
Y77949D01*
X110784D01*
X110784D01*
X110787D01*
X110791D01*
X110796D01*
X110804Y77948D01*
D02*
G37*
D10*
X113896Y74707D02*
X116736D01*
Y80487D01*
X113896D02*
X116736D01*
X113896Y74707D02*
Y80487D01*
X109578Y74707D02*
X112418D01*
Y80487D01*
X109578D02*
X112418D01*
X109578Y74707D02*
Y80487D01*
M02*
