G04*
G04 #@! TF.GenerationSoftware,Altium Limited,Altium Designer,21.2.2 (38)*
G04*
G04 Layer_Color=16711935*
%FSLAX43Y43*%
%MOMM*%
G71*
G04*
G04 #@! TF.SameCoordinates,F6177738-A101-420F-8975-3F4184574452*
G04*
G04*
G04 #@! TF.FilePolarity,Positive*
G04*
G01*
G75*
%ADD15C,0.254*%
D15*
Y762D02*
X393700D01*
X0Y203962D02*
X393700D01*
Y762D02*
Y203962D01*
X0Y762D02*
Y203962D01*
X83617Y18339D02*
X94640D01*
X83617Y34239D02*
X94640D01*
X83617Y18339D02*
Y34239D01*
X94640Y18339D02*
Y34239D01*
X71044Y18339D02*
X82067D01*
X71044Y34239D02*
X82067D01*
X71044Y18339D02*
Y34239D01*
X82067Y18339D02*
Y34239D01*
X58471Y18339D02*
X69494D01*
X58471Y34239D02*
X69494D01*
X58471Y18339D02*
Y34239D01*
X69494Y18339D02*
Y34239D01*
X217170Y108839D02*
Y196469D01*
X159258Y108839D02*
Y196469D01*
X217170D01*
X159258Y108839D02*
X217170D01*
X247234Y14697D02*
Y106544D01*
Y14697D02*
X386884D01*
X247234Y106544D02*
X386884D01*
Y14697D02*
Y106544D01*
X5385Y99924D02*
Y191770D01*
Y99924D02*
X145034D01*
X5385Y191770D02*
X145034D01*
Y99924D02*
Y191770D01*
X286639Y118770D02*
X316230D01*
X286639Y155956D02*
X316230D01*
X286639Y118770D02*
Y155956D01*
X316230Y118770D02*
Y155956D01*
X90043Y62484D02*
Y76073D01*
X106426Y62484D02*
Y76073D01*
X90043D02*
X106426D01*
X90043Y62484D02*
X106426D01*
X21910Y60604D02*
Y87020D01*
X46573Y60604D02*
Y87020D01*
X21910D02*
X46573D01*
X21910Y60604D02*
X46573D01*
M02*
