G04*
G04 #@! TF.GenerationSoftware,Altium Limited,Altium Designer,21.2.2 (38)*
G04*
G04 Layer_Color=16711935*
%FSLAX43Y43*%
%MOMM*%
G71*
G04*
G04 #@! TF.SameCoordinates,F6177738-A101-420F-8975-3F4184574452*
G04*
G04*
G04 #@! TF.FilePolarity,Positive*
G04*
G01*
G75*
%ADD10C,0.200*%
%ADD11C,0.127*%
D10*
X201458Y27686D02*
G03*
X201458Y27686I-100J0D01*
G01*
X195997D02*
G03*
X195997Y27686I-100J0D01*
G01*
X190536D02*
G03*
X190536Y27686I-100J0D01*
G01*
X159001Y33928D02*
G03*
X159001Y33928I-100J0D01*
G01*
X149857D02*
G03*
X149857Y33928I-100J0D01*
G01*
X131855Y31215D02*
G03*
X131855Y31215I-100J0D01*
G01*
X123981D02*
G03*
X123981Y31215I-100J0D01*
G01*
X115980D02*
G03*
X115980Y31215I-100J0D01*
G01*
X55662Y27686D02*
G03*
X55662Y27686I-100J0D01*
G01*
X48169D02*
G03*
X48169Y27686I-100J0D01*
G01*
X169923Y80156D02*
G03*
X169923Y80156I-100J0D01*
G01*
D11*
X132355Y29845D02*
G03*
X132355Y32385I2604J1270D01*
G01*
X124481Y29845D02*
G03*
X124481Y32385I2604J1270D01*
G01*
X116480Y29845D02*
G03*
X116480Y32385I2604J1270D01*
G01*
X197636Y26326D02*
Y34126D01*
X200636D01*
Y26326D02*
Y34126D01*
X197636Y26326D02*
X200636D01*
X192175D02*
Y34126D01*
X195175D01*
Y26326D02*
Y34126D01*
X192175Y26326D02*
X195175D01*
X186714D02*
Y34126D01*
X189714D01*
Y26326D02*
Y34126D01*
X186714Y26326D02*
X189714D01*
X182308Y32701D02*
Y34101D01*
X184468Y32701D02*
Y34101D01*
X182308Y32701D02*
X184468D01*
X182308Y34101D02*
X184468D01*
X177609Y32701D02*
Y34101D01*
X179769Y32701D02*
Y34101D01*
X177609Y32701D02*
X179769D01*
X177609Y34101D02*
X179769D01*
X174117Y30540D02*
Y31840D01*
Y24040D02*
Y25340D01*
X172767Y30540D02*
X174117D01*
X175467D01*
X174117Y25340D02*
X175467D01*
X172767D02*
X174117D01*
X172767Y26165D02*
X175467D01*
Y30540D01*
Y25340D02*
Y26165D01*
X172767Y25340D02*
Y26165D01*
Y30540D01*
X169672D02*
Y31840D01*
Y24040D02*
Y25340D01*
X168322Y30540D02*
X169672D01*
X171022D01*
X169672Y25340D02*
X171022D01*
X168322D02*
X169672D01*
X168322Y26165D02*
X171022D01*
Y30540D01*
Y25340D02*
Y26165D01*
X168322Y25340D02*
Y26165D01*
Y30540D01*
X164891Y29170D02*
Y34076D01*
X160991Y29170D02*
Y34076D01*
Y29170D02*
X164891D01*
X160991Y34076D02*
X164891D01*
X155747Y29170D02*
Y34076D01*
X151847Y29170D02*
Y34076D01*
Y29170D02*
X155747D01*
X151847Y34076D02*
X155747D01*
X145542Y30540D02*
Y31840D01*
Y24040D02*
Y25340D01*
X144192Y30540D02*
X145542D01*
X146892D01*
X145542Y25340D02*
X146892D01*
X144192D02*
X145542D01*
X144192Y26165D02*
X146892D01*
Y30540D01*
Y25340D02*
Y26165D01*
X144192Y25340D02*
Y26165D01*
Y30540D01*
X140970D02*
Y31840D01*
Y24040D02*
Y25340D01*
X139620Y30540D02*
X140970D01*
X142320D01*
X140970Y25340D02*
X142320D01*
X139620D02*
X140970D01*
X139620Y26165D02*
X142320D01*
Y30540D01*
Y25340D02*
Y26165D01*
X139620Y25340D02*
Y26165D01*
Y30540D01*
X132355Y29845D02*
Y32385D01*
X124481Y29845D02*
Y32385D01*
X116480Y29845D02*
Y32385D01*
X112268Y30540D02*
Y31840D01*
Y24040D02*
Y25340D01*
X110918Y30540D02*
X112268D01*
X113618D01*
X112268Y25340D02*
X113618D01*
X110918D02*
X112268D01*
X110918Y26165D02*
X113618D01*
Y30540D01*
Y25340D02*
Y26165D01*
X110918Y25340D02*
Y26165D01*
Y30540D01*
X107696D02*
Y31840D01*
Y24040D02*
Y25340D01*
X106346Y30540D02*
X107696D01*
X109046D01*
X107696Y25340D02*
X109046D01*
X106346D02*
X107696D01*
X106346Y26165D02*
X109046D01*
Y30540D01*
Y25340D02*
Y26165D01*
X106346Y25340D02*
Y26165D01*
Y30540D01*
X102108D02*
Y31840D01*
Y24040D02*
Y25340D01*
X100758Y30540D02*
X102108D01*
X103458D01*
X102108Y25340D02*
X103458D01*
X100758D02*
X102108D01*
X100758Y26165D02*
X103458D01*
Y30540D01*
Y25340D02*
Y26165D01*
X100758Y25340D02*
Y26165D01*
Y30540D01*
X97663D02*
Y31840D01*
Y24040D02*
Y25340D01*
X96313Y30540D02*
X97663D01*
X99013D01*
X97663Y25340D02*
X99013D01*
X96313D02*
X97663D01*
X96313Y26165D02*
X99013D01*
Y30540D01*
Y25340D02*
Y26165D01*
X96313Y25340D02*
Y26165D01*
Y30540D01*
X51840Y26326D02*
Y34126D01*
X54840D01*
Y26326D02*
Y34126D01*
X51840Y26326D02*
X54840D01*
X44347D02*
Y34126D01*
X47347D01*
Y26326D02*
Y34126D01*
X44347Y26326D02*
X47347D01*
X39179Y32701D02*
Y34101D01*
X41339Y32701D02*
Y34101D01*
X39179Y32701D02*
X41339D01*
X39179Y34101D02*
X41339D01*
X33591Y32701D02*
Y34101D01*
X35751Y32701D02*
Y34101D01*
X33591Y32701D02*
X35751D01*
X33591Y34101D02*
X35751D01*
X28003Y32701D02*
Y34101D01*
X30163Y32701D02*
Y34101D01*
X28003Y32701D02*
X30163D01*
X28003Y34101D02*
X30163D01*
X207581Y78929D02*
Y80329D01*
X209741Y78929D02*
Y80329D01*
X207581Y78929D02*
X209741D01*
X207581Y80329D02*
X209741D01*
X155638Y78929D02*
Y80329D01*
X157798Y78929D02*
Y80329D01*
X155638Y78929D02*
X157798D01*
X155638Y80329D02*
X157798D01*
X193484Y78929D02*
Y80329D01*
X195644Y78929D02*
Y80329D01*
X193484Y78929D02*
X195644D01*
X193484Y80329D02*
X195644D01*
X202882Y78929D02*
Y80329D01*
X205042Y78929D02*
Y80329D01*
X202882Y78929D02*
X205042D01*
X202882Y80329D02*
X205042D01*
X188785Y78929D02*
Y80329D01*
X190945Y78929D02*
Y80329D01*
X188785Y78929D02*
X190945D01*
X188785Y80329D02*
X190945D01*
X150939Y78929D02*
Y80329D01*
X153099Y78929D02*
Y80329D01*
X150939Y78929D02*
X153099D01*
X150939Y80329D02*
X153099D01*
X198183Y78929D02*
Y80329D01*
X200343Y78929D02*
Y80329D01*
X198183Y78929D02*
X200343D01*
X198183Y80329D02*
X200343D01*
X146240Y78929D02*
Y80329D01*
X148400Y78929D02*
Y80329D01*
X146240Y78929D02*
X148400D01*
X146240Y80329D02*
X148400D01*
X184086Y78929D02*
Y80329D01*
X186246Y78929D02*
Y80329D01*
X184086Y78929D02*
X186246D01*
X184086Y80329D02*
X186246D01*
X142748Y76768D02*
Y78068D01*
Y70268D02*
Y71568D01*
X141398Y76768D02*
X142748D01*
X144098D01*
X142748Y71568D02*
X144098D01*
X141398D02*
X142748D01*
X141398Y72393D02*
X144098D01*
Y76768D01*
Y71568D02*
Y72393D01*
X141398Y71568D02*
Y72393D01*
Y76768D01*
X162179D02*
Y78068D01*
Y70268D02*
Y71568D01*
X160829Y76768D02*
X162179D01*
X163529D01*
X162179Y71568D02*
X163529D01*
X160829D02*
X162179D01*
X160829Y72393D02*
X163529D01*
Y76768D01*
Y71568D02*
Y72393D01*
X160829Y71568D02*
Y72393D01*
Y76768D01*
X166751D02*
Y78068D01*
Y70268D02*
Y71568D01*
X165401Y76768D02*
X166751D01*
X168101D01*
X166751Y71568D02*
X168101D01*
X165401D02*
X166751D01*
X165401Y72393D02*
X168101D01*
Y76768D01*
Y71568D02*
Y72393D01*
X165401Y71568D02*
Y72393D01*
Y76768D01*
X180467D02*
Y78068D01*
Y70268D02*
Y71568D01*
X179117Y76768D02*
X180467D01*
X181817D01*
X180467Y71568D02*
X181817D01*
X179117D02*
X180467D01*
X179117Y72393D02*
X181817D01*
Y76768D01*
Y71568D02*
Y72393D01*
X179117Y71568D02*
Y72393D01*
Y76768D01*
X175813Y75398D02*
Y80303D01*
X171913Y75398D02*
Y80303D01*
Y75398D02*
X175813D01*
X171913Y80303D02*
X175813D01*
M02*
