G04*
G04 #@! TF.GenerationSoftware,Altium Limited,Altium Designer,21.2.2 (38)*
G04*
G04 Layer_Color=8388736*
%FSLAX43Y43*%
%MOMM*%
G71*
G04*
G04 #@! TF.SameCoordinates,F6177738-A101-420F-8975-3F4184574452*
G04*
G04*
G04 #@! TF.FilePolarity,Positive*
G04*
G01*
G75*
%ADD10C,0.200*%
G36*
X131035Y76080D02*
X131047Y76078D01*
X131062Y76075D01*
X131078Y76070D01*
X131095Y76065D01*
X131112Y76057D01*
X131113D01*
X131114Y76057D01*
X131119Y76054D01*
X131127Y76048D01*
X131137Y76042D01*
X131148Y76032D01*
X131159Y76022D01*
X131170Y76010D01*
X131179Y75996D01*
X131180Y75995D01*
X131183Y75990D01*
X131187Y75982D01*
X131191Y75971D01*
X131196Y75959D01*
X131200Y75946D01*
X131202Y75930D01*
X131203Y75914D01*
Y75912D01*
Y75907D01*
X131202Y75899D01*
X131201Y75889D01*
X131198Y75877D01*
X131193Y75864D01*
X131188Y75851D01*
X131180Y75838D01*
X131179Y75836D01*
X131176Y75833D01*
X131171Y75826D01*
X131164Y75819D01*
X131154Y75811D01*
X131143Y75801D01*
X131130Y75793D01*
X131115Y75785D01*
X131115D01*
X131117Y75784D01*
X131120Y75783D01*
X131124Y75782D01*
X131134Y75778D01*
X131147Y75773D01*
X131162Y75765D01*
X131176Y75756D01*
X131190Y75744D01*
X131203Y75730D01*
X131204Y75728D01*
X131208Y75723D01*
X131213Y75714D01*
X131219Y75701D01*
X131225Y75687D01*
X131230Y75669D01*
X131234Y75649D01*
X131235Y75627D01*
Y75626D01*
Y75623D01*
Y75618D01*
X131234Y75613D01*
X131233Y75605D01*
X131231Y75597D01*
X131229Y75588D01*
X131227Y75578D01*
X131220Y75555D01*
X131214Y75543D01*
X131209Y75532D01*
X131201Y75520D01*
X131193Y75508D01*
X131184Y75496D01*
X131173Y75485D01*
X131172Y75484D01*
X131170Y75482D01*
X131166Y75480D01*
X131162Y75476D01*
X131156Y75471D01*
X131149Y75467D01*
X131140Y75461D01*
X131130Y75456D01*
X131120Y75451D01*
X131108Y75445D01*
X131096Y75441D01*
X131082Y75436D01*
X131067Y75432D01*
X131052Y75430D01*
X131036Y75428D01*
X131018Y75427D01*
X131010D01*
X131005Y75428D01*
X130997Y75429D01*
X130989Y75430D01*
X130980Y75432D01*
X130969Y75433D01*
X130947Y75439D01*
X130924Y75448D01*
X130912Y75454D01*
X130901Y75460D01*
X130890Y75469D01*
X130879Y75477D01*
X130878Y75478D01*
X130876Y75480D01*
X130873Y75482D01*
X130870Y75486D01*
X130866Y75491D01*
X130861Y75497D01*
X130856Y75504D01*
X130850Y75512D01*
X130845Y75521D01*
X130839Y75530D01*
X130829Y75553D01*
X130821Y75579D01*
X130818Y75592D01*
X130816Y75607D01*
X130894Y75617D01*
Y75616D01*
X130895Y75615D01*
X130896Y75611D01*
X130897Y75606D01*
X130898Y75601D01*
X130900Y75594D01*
X130905Y75580D01*
X130911Y75564D01*
X130919Y75548D01*
X130929Y75533D01*
X130940Y75520D01*
X130942Y75519D01*
X130945Y75516D01*
X130953Y75511D01*
X130962Y75506D01*
X130973Y75501D01*
X130987Y75496D01*
X131003Y75493D01*
X131019Y75492D01*
X131025D01*
X131029Y75493D01*
X131039Y75493D01*
X131052Y75496D01*
X131066Y75501D01*
X131082Y75507D01*
X131098Y75517D01*
X131113Y75530D01*
X131115Y75531D01*
X131119Y75537D01*
X131125Y75545D01*
X131132Y75556D01*
X131139Y75570D01*
X131145Y75586D01*
X131150Y75604D01*
X131152Y75625D01*
Y75626D01*
Y75628D01*
Y75630D01*
X131151Y75634D01*
X131150Y75644D01*
X131147Y75656D01*
X131143Y75671D01*
X131137Y75686D01*
X131127Y75701D01*
X131115Y75714D01*
X131114Y75716D01*
X131109Y75720D01*
X131102Y75726D01*
X131091Y75732D01*
X131078Y75738D01*
X131063Y75744D01*
X131045Y75748D01*
X131026Y75750D01*
X131017D01*
X131011Y75749D01*
X131003Y75748D01*
X130993Y75746D01*
X130982Y75744D01*
X130970Y75741D01*
X130980Y75811D01*
X130984D01*
X130988Y75810D01*
X131000D01*
X131010Y75812D01*
X131022Y75813D01*
X131036Y75816D01*
X131052Y75821D01*
X131066Y75827D01*
X131082Y75836D01*
X131083D01*
X131084Y75836D01*
X131089Y75840D01*
X131095Y75847D01*
X131103Y75855D01*
X131110Y75867D01*
X131116Y75881D01*
X131121Y75897D01*
X131123Y75906D01*
Y75916D01*
Y75917D01*
Y75918D01*
Y75923D01*
X131121Y75931D01*
X131119Y75941D01*
X131115Y75952D01*
X131111Y75964D01*
X131103Y75976D01*
X131093Y75987D01*
X131092Y75988D01*
X131088Y75992D01*
X131081Y75996D01*
X131073Y76002D01*
X131062Y76007D01*
X131049Y76011D01*
X131034Y76015D01*
X131017Y76016D01*
X131010D01*
X131002Y76014D01*
X130991Y76012D01*
X130979Y76008D01*
X130967Y76004D01*
X130954Y75996D01*
X130942Y75987D01*
X130941Y75986D01*
X130937Y75982D01*
X130931Y75975D01*
X130925Y75966D01*
X130919Y75954D01*
X130912Y75939D01*
X130906Y75922D01*
X130903Y75901D01*
X130824Y75915D01*
Y75916D01*
X130825Y75919D01*
X130826Y75922D01*
X130827Y75928D01*
X130829Y75934D01*
X130832Y75942D01*
X130837Y75959D01*
X130846Y75980D01*
X130857Y76000D01*
X130871Y76020D01*
X130889Y76037D01*
X130890Y76038D01*
X130892Y76039D01*
X130894Y76041D01*
X130898Y76044D01*
X130903Y76047D01*
X130909Y76051D01*
X130916Y76055D01*
X130924Y76059D01*
X130943Y76067D01*
X130964Y76074D01*
X130989Y76079D01*
X131002Y76081D01*
X131025D01*
X131035Y76080D01*
D02*
G37*
G36*
X129876Y75438D02*
X129787D01*
X129539Y76078D01*
X129632D01*
X129798Y75613D01*
Y75612D01*
X129799Y75610D01*
X129800Y75607D01*
X129802Y75604D01*
X129803Y75598D01*
X129804Y75592D01*
X129809Y75579D01*
X129815Y75563D01*
X129820Y75545D01*
X129831Y75508D01*
Y75509D01*
X129832Y75511D01*
X129833Y75514D01*
X129834Y75518D01*
X129837Y75528D01*
X129841Y75542D01*
X129846Y75557D01*
X129852Y75575D01*
X129858Y75593D01*
X129865Y75613D01*
X130039Y76078D01*
X130125D01*
X129876Y75438D01*
D02*
G37*
G36*
X130507Y76077D02*
X130515D01*
X130535Y76076D01*
X130555Y76073D01*
X130577Y76070D01*
X130598Y76066D01*
X130608Y76063D01*
X130616Y76060D01*
X130617D01*
X130618Y76059D01*
X130624Y76057D01*
X130632Y76053D01*
X130642Y76046D01*
X130653Y76038D01*
X130665Y76027D01*
X130676Y76014D01*
X130687Y75999D01*
Y75998D01*
X130688Y75997D01*
X130692Y75992D01*
X130696Y75983D01*
X130701Y75971D01*
X130706Y75957D01*
X130710Y75940D01*
X130713Y75922D01*
X130714Y75903D01*
Y75902D01*
Y75900D01*
Y75897D01*
X130713Y75892D01*
Y75885D01*
X130712Y75879D01*
X130709Y75863D01*
X130703Y75845D01*
X130696Y75825D01*
X130685Y75806D01*
X130677Y75797D01*
X130670Y75787D01*
X130669Y75787D01*
X130668Y75786D01*
X130665Y75783D01*
X130661Y75780D01*
X130657Y75776D01*
X130651Y75773D01*
X130644Y75768D01*
X130637Y75763D01*
X130627Y75758D01*
X130617Y75753D01*
X130606Y75748D01*
X130594Y75743D01*
X130580Y75739D01*
X130566Y75735D01*
X130551Y75732D01*
X130534Y75729D01*
X130536Y75728D01*
X130539Y75726D01*
X130545Y75723D01*
X130552Y75719D01*
X130569Y75709D01*
X130577Y75702D01*
X130585Y75697D01*
X130587Y75695D01*
X130591Y75690D01*
X130599Y75683D01*
X130608Y75674D01*
X130618Y75661D01*
X130630Y75647D01*
X130642Y75630D01*
X130655Y75612D01*
X130765Y75438D01*
X130660D01*
X130576Y75571D01*
Y75572D01*
X130574Y75574D01*
X130572Y75577D01*
X130569Y75580D01*
X130563Y75591D01*
X130554Y75604D01*
X130544Y75617D01*
X130534Y75632D01*
X130524Y75646D01*
X130514Y75659D01*
X130514Y75660D01*
X130511Y75664D01*
X130506Y75669D01*
X130500Y75676D01*
X130486Y75689D01*
X130478Y75696D01*
X130471Y75701D01*
X130470Y75702D01*
X130468Y75703D01*
X130465Y75705D01*
X130459Y75708D01*
X130453Y75711D01*
X130447Y75714D01*
X130432Y75718D01*
X130431D01*
X130429Y75719D01*
X130426D01*
X130421Y75720D01*
X130415Y75721D01*
X130407D01*
X130397Y75722D01*
X130288D01*
Y75438D01*
X130203D01*
Y76078D01*
X130500D01*
X130507Y76077D01*
D02*
G37*
G36*
X122256Y75438D02*
X122167D01*
X121919Y76078D01*
X122012D01*
X122178Y75613D01*
Y75612D01*
X122179Y75610D01*
X122180Y75607D01*
X122182Y75604D01*
X122183Y75598D01*
X122184Y75592D01*
X122189Y75579D01*
X122195Y75563D01*
X122200Y75545D01*
X122211Y75508D01*
Y75509D01*
X122212Y75511D01*
X122213Y75514D01*
X122214Y75518D01*
X122217Y75528D01*
X122221Y75542D01*
X122226Y75557D01*
X122232Y75575D01*
X122238Y75593D01*
X122245Y75613D01*
X122419Y76078D01*
X122505D01*
X122256Y75438D01*
D02*
G37*
G36*
X123422Y76080D02*
X123430Y76079D01*
X123439Y76078D01*
X123449Y76076D01*
X123459Y76074D01*
X123483Y76068D01*
X123507Y76058D01*
X123519Y76053D01*
X123532Y76046D01*
X123543Y76038D01*
X123553Y76029D01*
X123554Y76028D01*
X123556Y76027D01*
X123557Y76023D01*
X123561Y76020D01*
X123566Y76015D01*
X123570Y76008D01*
X123575Y76002D01*
X123581Y75994D01*
X123590Y75976D01*
X123599Y75954D01*
X123603Y75943D01*
X123605Y75930D01*
X123606Y75917D01*
X123607Y75903D01*
Y75901D01*
Y75897D01*
X123606Y75889D01*
X123605Y75879D01*
X123604Y75868D01*
X123600Y75855D01*
X123596Y75841D01*
X123591Y75827D01*
X123590Y75825D01*
X123588Y75821D01*
X123584Y75813D01*
X123579Y75803D01*
X123571Y75792D01*
X123562Y75778D01*
X123551Y75764D01*
X123538Y75749D01*
X123536Y75747D01*
X123532Y75741D01*
X123527Y75737D01*
X123522Y75732D01*
X123517Y75726D01*
X123509Y75719D01*
X123502Y75712D01*
X123493Y75703D01*
X123483Y75694D01*
X123472Y75684D01*
X123460Y75674D01*
X123447Y75662D01*
X123433Y75650D01*
X123418Y75637D01*
X123417Y75636D01*
X123415Y75634D01*
X123411Y75631D01*
X123407Y75628D01*
X123401Y75622D01*
X123395Y75616D01*
X123380Y75604D01*
X123364Y75591D01*
X123349Y75577D01*
X123336Y75565D01*
X123331Y75560D01*
X123326Y75555D01*
X123325Y75554D01*
X123323Y75552D01*
X123319Y75548D01*
X123314Y75542D01*
X123310Y75536D01*
X123304Y75530D01*
X123293Y75514D01*
X123608D01*
Y75438D01*
X123184D01*
Y75439D01*
Y75443D01*
Y75448D01*
X123185Y75456D01*
X123186Y75464D01*
X123188Y75473D01*
X123189Y75482D01*
X123193Y75493D01*
Y75493D01*
X123194Y75494D01*
X123196Y75500D01*
X123200Y75508D01*
X123205Y75519D01*
X123213Y75532D01*
X123222Y75547D01*
X123232Y75562D01*
X123245Y75578D01*
Y75579D01*
X123247Y75579D01*
X123251Y75585D01*
X123260Y75593D01*
X123272Y75605D01*
X123286Y75619D01*
X123303Y75636D01*
X123324Y75654D01*
X123348Y75674D01*
X123348Y75675D01*
X123352Y75677D01*
X123358Y75682D01*
X123364Y75688D01*
X123372Y75695D01*
X123383Y75703D01*
X123393Y75713D01*
X123405Y75723D01*
X123428Y75745D01*
X123451Y75767D01*
X123462Y75778D01*
X123472Y75789D01*
X123482Y75799D01*
X123489Y75810D01*
Y75811D01*
X123491Y75812D01*
X123493Y75814D01*
X123495Y75818D01*
X123501Y75828D01*
X123508Y75840D01*
X123515Y75855D01*
X123521Y75871D01*
X123525Y75888D01*
X123527Y75905D01*
Y75906D01*
Y75907D01*
X123526Y75912D01*
X123525Y75922D01*
X123522Y75932D01*
X123519Y75945D01*
X123512Y75958D01*
X123504Y75971D01*
X123493Y75983D01*
X123491Y75985D01*
X123486Y75989D01*
X123480Y75994D01*
X123470Y76000D01*
X123457Y76006D01*
X123442Y76011D01*
X123424Y76015D01*
X123405Y76016D01*
X123399D01*
X123396Y76015D01*
X123384Y76014D01*
X123372Y76011D01*
X123358Y76008D01*
X123342Y76001D01*
X123327Y75993D01*
X123313Y75982D01*
X123311Y75980D01*
X123308Y75975D01*
X123302Y75968D01*
X123297Y75957D01*
X123290Y75944D01*
X123285Y75927D01*
X123281Y75909D01*
X123279Y75887D01*
X123199Y75896D01*
Y75897D01*
X123200Y75899D01*
Y75904D01*
X123201Y75910D01*
X123202Y75918D01*
X123204Y75926D01*
X123207Y75936D01*
X123210Y75947D01*
X123217Y75969D01*
X123228Y75991D01*
X123235Y76002D01*
X123243Y76013D01*
X123251Y76023D01*
X123261Y76032D01*
X123262Y76033D01*
X123263Y76034D01*
X123266Y76037D01*
X123271Y76040D01*
X123276Y76044D01*
X123283Y76047D01*
X123290Y76052D01*
X123299Y76057D01*
X123310Y76061D01*
X123321Y76066D01*
X123333Y76069D01*
X123346Y76073D01*
X123360Y76076D01*
X123374Y76079D01*
X123390Y76080D01*
X123407Y76081D01*
X123416D01*
X123422Y76080D01*
D02*
G37*
G36*
X122887Y76077D02*
X122895D01*
X122915Y76076D01*
X122935Y76073D01*
X122957Y76070D01*
X122978Y76066D01*
X122988Y76063D01*
X122996Y76060D01*
X122997D01*
X122998Y76059D01*
X123004Y76057D01*
X123012Y76053D01*
X123022Y76046D01*
X123033Y76038D01*
X123045Y76027D01*
X123056Y76014D01*
X123067Y75999D01*
Y75998D01*
X123068Y75997D01*
X123072Y75992D01*
X123076Y75983D01*
X123081Y75971D01*
X123086Y75957D01*
X123090Y75940D01*
X123093Y75922D01*
X123094Y75903D01*
Y75902D01*
Y75900D01*
Y75897D01*
X123093Y75892D01*
Y75885D01*
X123092Y75879D01*
X123089Y75863D01*
X123083Y75845D01*
X123076Y75825D01*
X123065Y75806D01*
X123057Y75797D01*
X123050Y75787D01*
X123049Y75787D01*
X123048Y75786D01*
X123045Y75783D01*
X123041Y75780D01*
X123037Y75776D01*
X123031Y75773D01*
X123024Y75768D01*
X123017Y75763D01*
X123007Y75758D01*
X122997Y75753D01*
X122986Y75748D01*
X122974Y75743D01*
X122960Y75739D01*
X122946Y75735D01*
X122931Y75732D01*
X122914Y75729D01*
X122916Y75728D01*
X122919Y75726D01*
X122925Y75723D01*
X122932Y75719D01*
X122949Y75709D01*
X122957Y75702D01*
X122965Y75697D01*
X122967Y75695D01*
X122971Y75690D01*
X122979Y75683D01*
X122988Y75674D01*
X122998Y75661D01*
X123010Y75647D01*
X123022Y75630D01*
X123035Y75612D01*
X123145Y75438D01*
X123040D01*
X122956Y75571D01*
Y75572D01*
X122954Y75574D01*
X122952Y75577D01*
X122949Y75580D01*
X122943Y75591D01*
X122934Y75604D01*
X122924Y75617D01*
X122914Y75632D01*
X122904Y75646D01*
X122894Y75659D01*
X122894Y75660D01*
X122891Y75664D01*
X122886Y75669D01*
X122880Y75676D01*
X122866Y75689D01*
X122858Y75696D01*
X122851Y75701D01*
X122850Y75702D01*
X122848Y75703D01*
X122845Y75705D01*
X122839Y75708D01*
X122833Y75711D01*
X122827Y75714D01*
X122812Y75718D01*
X122811D01*
X122809Y75719D01*
X122806D01*
X122801Y75720D01*
X122795Y75721D01*
X122787D01*
X122777Y75722D01*
X122668D01*
Y75438D01*
X122583D01*
Y76078D01*
X122880D01*
X122887Y76077D01*
D02*
G37*
G36*
X137496Y75438D02*
X137407D01*
X137159Y76078D01*
X137252D01*
X137418Y75613D01*
Y75612D01*
X137419Y75610D01*
X137420Y75607D01*
X137422Y75604D01*
X137423Y75598D01*
X137424Y75592D01*
X137429Y75579D01*
X137435Y75563D01*
X137440Y75545D01*
X137451Y75508D01*
Y75509D01*
X137452Y75511D01*
X137453Y75514D01*
X137454Y75518D01*
X137457Y75528D01*
X137461Y75542D01*
X137466Y75557D01*
X137472Y75575D01*
X137478Y75593D01*
X137485Y75613D01*
X137659Y76078D01*
X137745D01*
X137496Y75438D01*
D02*
G37*
G36*
X138731D02*
X138652D01*
Y75938D01*
X138651Y75937D01*
X138647Y75934D01*
X138641Y75928D01*
X138632Y75922D01*
X138622Y75913D01*
X138609Y75904D01*
X138594Y75894D01*
X138577Y75884D01*
X138576D01*
X138576Y75883D01*
X138570Y75879D01*
X138561Y75874D01*
X138550Y75869D01*
X138537Y75862D01*
X138523Y75856D01*
X138509Y75849D01*
X138495Y75844D01*
Y75920D01*
X138496D01*
X138498Y75922D01*
X138502Y75922D01*
X138506Y75925D01*
X138512Y75928D01*
X138518Y75932D01*
X138534Y75941D01*
X138552Y75951D01*
X138571Y75964D01*
X138590Y75979D01*
X138610Y75995D01*
X138611Y75996D01*
X138612Y75996D01*
X138614Y75999D01*
X138618Y76002D01*
X138626Y76011D01*
X138637Y76022D01*
X138649Y76035D01*
X138661Y76050D01*
X138671Y76065D01*
X138680Y76081D01*
X138731D01*
Y75438D01*
D02*
G37*
G36*
X138127Y76077D02*
X138135D01*
X138155Y76076D01*
X138175Y76073D01*
X138197Y76070D01*
X138218Y76066D01*
X138228Y76063D01*
X138236Y76060D01*
X138237D01*
X138238Y76059D01*
X138244Y76057D01*
X138252Y76053D01*
X138262Y76046D01*
X138273Y76038D01*
X138285Y76027D01*
X138296Y76014D01*
X138307Y75999D01*
Y75998D01*
X138308Y75997D01*
X138312Y75992D01*
X138316Y75983D01*
X138321Y75971D01*
X138326Y75957D01*
X138330Y75940D01*
X138333Y75922D01*
X138334Y75903D01*
Y75902D01*
Y75900D01*
Y75897D01*
X138333Y75892D01*
Y75885D01*
X138332Y75879D01*
X138329Y75863D01*
X138323Y75845D01*
X138316Y75825D01*
X138305Y75806D01*
X138297Y75797D01*
X138290Y75787D01*
X138289Y75787D01*
X138288Y75786D01*
X138285Y75783D01*
X138281Y75780D01*
X138277Y75776D01*
X138271Y75773D01*
X138264Y75768D01*
X138257Y75763D01*
X138247Y75758D01*
X138237Y75753D01*
X138226Y75748D01*
X138214Y75743D01*
X138200Y75739D01*
X138186Y75735D01*
X138171Y75732D01*
X138154Y75729D01*
X138156Y75728D01*
X138159Y75726D01*
X138165Y75723D01*
X138172Y75719D01*
X138189Y75709D01*
X138197Y75702D01*
X138205Y75697D01*
X138207Y75695D01*
X138211Y75690D01*
X138219Y75683D01*
X138228Y75674D01*
X138238Y75661D01*
X138250Y75647D01*
X138262Y75630D01*
X138275Y75612D01*
X138385Y75438D01*
X138280D01*
X138196Y75571D01*
Y75572D01*
X138194Y75574D01*
X138192Y75577D01*
X138189Y75580D01*
X138183Y75591D01*
X138174Y75604D01*
X138164Y75617D01*
X138154Y75632D01*
X138144Y75646D01*
X138134Y75659D01*
X138134Y75660D01*
X138131Y75664D01*
X138126Y75669D01*
X138120Y75676D01*
X138106Y75689D01*
X138098Y75696D01*
X138091Y75701D01*
X138090Y75702D01*
X138088Y75703D01*
X138085Y75705D01*
X138079Y75708D01*
X138073Y75711D01*
X138067Y75714D01*
X138052Y75718D01*
X138051D01*
X138049Y75719D01*
X138046D01*
X138041Y75720D01*
X138035Y75721D01*
X138027D01*
X138017Y75722D01*
X137908D01*
Y75438D01*
X137823D01*
Y76078D01*
X138120D01*
X138127Y76077D01*
D02*
G37*
%LPC*%
G36*
X130490Y76007D02*
X130288D01*
Y75795D01*
X130478D01*
X130490Y75796D01*
X130502Y75797D01*
X130517Y75798D01*
X130532Y75799D01*
X130547Y75802D01*
X130560Y75806D01*
X130562Y75807D01*
X130565Y75809D01*
X130571Y75812D01*
X130578Y75815D01*
X130587Y75821D01*
X130595Y75827D01*
X130603Y75836D01*
X130610Y75845D01*
X130611Y75846D01*
X130612Y75849D01*
X130615Y75855D01*
X130619Y75862D01*
X130622Y75871D01*
X130625Y75880D01*
X130626Y75891D01*
X130627Y75902D01*
Y75903D01*
Y75904D01*
X130626Y75910D01*
X130625Y75918D01*
X130624Y75929D01*
X130619Y75940D01*
X130613Y75953D01*
X130605Y75965D01*
X130594Y75977D01*
X130592Y75978D01*
X130588Y75982D01*
X130580Y75986D01*
X130568Y75992D01*
X130554Y75997D01*
X130536Y76002D01*
X130514Y76006D01*
X130490Y76007D01*
D02*
G37*
G36*
X122870D02*
X122668D01*
Y75795D01*
X122858D01*
X122870Y75796D01*
X122882Y75797D01*
X122897Y75798D01*
X122912Y75799D01*
X122927Y75802D01*
X122940Y75806D01*
X122942Y75807D01*
X122945Y75809D01*
X122951Y75812D01*
X122958Y75815D01*
X122967Y75821D01*
X122975Y75827D01*
X122983Y75836D01*
X122990Y75845D01*
X122991Y75846D01*
X122992Y75849D01*
X122995Y75855D01*
X122999Y75862D01*
X123002Y75871D01*
X123005Y75880D01*
X123006Y75891D01*
X123007Y75902D01*
Y75903D01*
Y75904D01*
X123006Y75910D01*
X123005Y75918D01*
X123004Y75929D01*
X122999Y75940D01*
X122993Y75953D01*
X122985Y75965D01*
X122974Y75977D01*
X122972Y75978D01*
X122968Y75982D01*
X122960Y75986D01*
X122948Y75992D01*
X122934Y75997D01*
X122916Y76002D01*
X122894Y76006D01*
X122870Y76007D01*
D02*
G37*
G36*
X138110D02*
X137908D01*
Y75795D01*
X138098D01*
X138110Y75796D01*
X138122Y75797D01*
X138137Y75798D01*
X138152Y75799D01*
X138167Y75802D01*
X138180Y75806D01*
X138182Y75807D01*
X138185Y75809D01*
X138191Y75812D01*
X138198Y75815D01*
X138207Y75821D01*
X138215Y75827D01*
X138223Y75836D01*
X138230Y75845D01*
X138231Y75846D01*
X138232Y75849D01*
X138235Y75855D01*
X138239Y75862D01*
X138242Y75871D01*
X138245Y75880D01*
X138246Y75891D01*
X138247Y75902D01*
Y75903D01*
Y75904D01*
X138246Y75910D01*
X138245Y75918D01*
X138244Y75929D01*
X138239Y75940D01*
X138233Y75953D01*
X138225Y75965D01*
X138214Y75977D01*
X138212Y75978D01*
X138208Y75982D01*
X138200Y75986D01*
X138188Y75992D01*
X138174Y75997D01*
X138156Y76002D01*
X138134Y76006D01*
X138110Y76007D01*
D02*
G37*
%LPD*%
D10*
X126960Y70448D02*
Y80428D01*
Y70448D02*
X132120D01*
Y80428D01*
X126960D02*
X132120D01*
X119340Y70448D02*
Y80428D01*
Y70448D02*
X124500D01*
Y80428D01*
X119340D02*
X124500D01*
X134580Y70448D02*
Y80428D01*
Y70448D02*
X139740D01*
Y80428D01*
X134580D02*
X139740D01*
M02*
